{
	"patcher" : 	{
		"fileversion" : 1,
		"rect" : [ 640.0, 44.0, 1040.0, 878.0 ],
		"bglocked" : 0,
		"defrect" : [ 640.0, 44.0, 1040.0, 878.0 ],
		"openrect" : [ 0.0, 0.0, 0.0, 0.0 ],
		"openinpresentation" : 0,
		"default_fontsize" : 11.0,
		"default_fontface" : 0,
		"default_fontname" : "Helvetica Neue",
		"gridonopen" : 0,
		"gridsize" : [ 18.0, 6.0 ],
		"gridsnaponopen" : 0,
		"toolbarvisible" : 1,
		"boxanimatetime" : 200,
		"imprint" : 0,
		"enablehscroll" : 1,
		"enablevscroll" : 1,
		"devicewidth" : 0.0,
		"globalpatchername" : "u239007847",
		"boxes" : [ 			{
				"box" : 				{
					"maxclass" : "newobj",
					"text" : "deferlow",
					"presentation_rect" : [ 237.0, 686.0, 0.0, 0.0 ],
					"patching_rect" : [ 234.0, 684.0, 53.0, 20.0 ],
					"id" : "obj-79",
					"fontname" : "Helvetica Neue",
					"numinlets" : 1,
					"numoutlets" : 1,
					"fontsize" : 11.0,
					"outlettype" : [ "" ]
				}

			}
, 			{
				"box" : 				{
					"maxclass" : "newobj",
					"text" : "deferlow",
					"patching_rect" : [ 90.0, 714.0, 53.0, 20.0 ],
					"id" : "obj-78",
					"fontname" : "Helvetica Neue",
					"numinlets" : 1,
					"numoutlets" : 1,
					"fontsize" : 11.0,
					"outlettype" : [ "" ]
				}

			}
, 			{
				"box" : 				{
					"maxclass" : "newobj",
					"text" : "deferlow",
					"patching_rect" : [ 234.0, 510.0, 53.0, 20.0 ],
					"id" : "obj-71",
					"fontname" : "Helvetica Neue",
					"numinlets" : 1,
					"numoutlets" : 1,
					"fontsize" : 11.0,
					"outlettype" : [ "" ]
				}

			}
, 			{
				"box" : 				{
					"maxclass" : "newobj",
					"text" : "bangbang",
					"patching_rect" : [ 594.0, 786.0, 60.0, 20.0 ],
					"id" : "obj-77",
					"fontname" : "Helvetica Neue",
					"numinlets" : 1,
					"numoutlets" : 2,
					"fontsize" : 11.0,
					"outlettype" : [ "bang", "bang" ]
				}

			}
, 			{
				"box" : 				{
					"maxclass" : "newobj",
					"text" : "f",
					"patching_rect" : [ 540.0, 834.0, 32.5, 20.0 ],
					"id" : "obj-76",
					"fontname" : "Helvetica Neue",
					"numinlets" : 2,
					"numoutlets" : 1,
					"fontsize" : 11.0,
					"outlettype" : [ "float" ]
				}

			}
, 			{
				"box" : 				{
					"maxclass" : "newobj",
					"text" : "f",
					"patching_rect" : [ 504.0, 834.0, 32.5, 20.0 ],
					"id" : "obj-75",
					"fontname" : "Helvetica Neue",
					"numinlets" : 2,
					"numoutlets" : 1,
					"fontsize" : 11.0,
					"outlettype" : [ "float" ]
				}

			}
, 			{
				"box" : 				{
					"maxclass" : "newobj",
					"text" : "sel",
					"patching_rect" : [ 522.0, 762.0, 32.5, 20.0 ],
					"id" : "obj-74",
					"fontname" : "Helvetica Neue",
					"numinlets" : 2,
					"numoutlets" : 2,
					"fontsize" : 11.0,
					"outlettype" : [ "bang", "" ]
				}

			}
, 			{
				"box" : 				{
					"maxclass" : "newobj",
					"text" : "onebang",
					"patching_rect" : [ 522.0, 786.0, 54.0, 20.0 ],
					"id" : "obj-72",
					"fontname" : "Helvetica Neue",
					"numinlets" : 2,
					"numoutlets" : 2,
					"fontsize" : 11.0,
					"outlettype" : [ "bang", "bang" ]
				}

			}
, 			{
				"box" : 				{
					"maxclass" : "newobj",
					"text" : "loadmess 1",
					"patching_rect" : [ 234.0, 774.0, 67.0, 20.0 ],
					"id" : "obj-70",
					"fontname" : "Helvetica Neue",
					"numinlets" : 1,
					"numoutlets" : 1,
					"fontsize" : 11.0,
					"outlettype" : [ "" ]
				}

			}
, 			{
				"box" : 				{
					"maxclass" : "newobj",
					"text" : "gate 2",
					"patching_rect" : [ 306.0, 804.0, 52.0, 20.0 ],
					"id" : "obj-67",
					"fontname" : "Helvetica Neue",
					"numinlets" : 2,
					"numoutlets" : 2,
					"fontsize" : 11.0,
					"outlettype" : [ "", "" ]
				}

			}
, 			{
				"box" : 				{
					"maxclass" : "newobj",
					"text" : "+ 1",
					"patching_rect" : [ 432.0, 762.0, 32.5, 20.0 ],
					"id" : "obj-61",
					"fontname" : "Helvetica Neue",
					"numinlets" : 2,
					"numoutlets" : 1,
					"fontsize" : 11.0,
					"outlettype" : [ "int" ]
				}

			}
, 			{
				"box" : 				{
					"maxclass" : "newobj",
					"text" : "== 2",
					"patching_rect" : [ 432.0, 738.0, 33.0, 20.0 ],
					"id" : "obj-55",
					"fontname" : "Helvetica Neue",
					"numinlets" : 2,
					"numoutlets" : 1,
					"fontsize" : 11.0,
					"outlettype" : [ "int" ]
				}

			}
, 			{
				"box" : 				{
					"maxclass" : "newobj",
					"text" : "unpack 0 0. 0.",
					"patching_rect" : [ 468.0, 738.0, 80.0, 20.0 ],
					"id" : "obj-53",
					"fontname" : "Helvetica Neue",
					"numinlets" : 1,
					"numoutlets" : 3,
					"fontsize" : 11.0,
					"outlettype" : [ "int", "float", "float" ]
				}

			}
, 			{
				"box" : 				{
					"maxclass" : "newobj",
					"text" : "loadmess #3",
					"patching_rect" : [ 432.0, 714.0, 73.0, 20.0 ],
					"id" : "obj-4",
					"fontname" : "Helvetica Neue",
					"numinlets" : 1,
					"numoutlets" : 1,
					"fontsize" : 11.0,
					"outlettype" : [ "" ]
				}

			}
, 			{
				"box" : 				{
					"maxclass" : "newobj",
					"text" : "sprintf 0. 250",
					"patching_rect" : [ 105.0, 429.0, 75.0, 20.0 ],
					"id" : "obj-59",
					"fontname" : "Helvetica Neue",
					"numinlets" : 1,
					"numoutlets" : 1,
					"fontsize" : 11.0,
					"outlettype" : [ "" ]
				}

			}
, 			{
				"box" : 				{
					"maxclass" : "newobj",
					"text" : "line 0.5 50",
					"patching_rect" : [ 105.0, 453.0, 61.0, 20.0 ],
					"id" : "obj-51",
					"fontname" : "Helvetica Neue",
					"numinlets" : 3,
					"numoutlets" : 2,
					"fontsize" : 11.0,
					"outlettype" : [ "", "" ]
				}

			}
, 			{
				"box" : 				{
					"maxclass" : "newobj",
					"text" : "loadbang",
					"patching_rect" : [ 87.0, 381.0, 57.0, 20.0 ],
					"id" : "obj-58",
					"fontname" : "Helvetica Neue",
					"numinlets" : 1,
					"numoutlets" : 1,
					"fontsize" : 11.0,
					"outlettype" : [ "bang" ]
				}

			}
, 			{
				"box" : 				{
					"maxclass" : "newobj",
					"text" : "t 0.5",
					"patching_rect" : [ 51.0, 429.0, 32.0, 20.0 ],
					"id" : "obj-57",
					"fontname" : "Helvetica Neue",
					"numinlets" : 1,
					"numoutlets" : 1,
					"fontsize" : 11.0,
					"outlettype" : [ "float" ]
				}

			}
, 			{
				"box" : 				{
					"maxclass" : "newobj",
					"text" : "onebang",
					"patching_rect" : [ 51.0, 405.0, 54.0, 20.0 ],
					"id" : "obj-54",
					"fontname" : "Helvetica Neue",
					"numinlets" : 2,
					"numoutlets" : 2,
					"fontsize" : 11.0,
					"outlettype" : [ "bang", "bang" ]
				}

			}
, 			{
				"box" : 				{
					"maxclass" : "newobj",
					"text" : "del 500",
					"patching_rect" : [ 105.0, 405.0, 47.0, 20.0 ],
					"id" : "obj-52",
					"fontname" : "Helvetica Neue",
					"numinlets" : 2,
					"numoutlets" : 1,
					"fontsize" : 11.0,
					"outlettype" : [ "bang" ]
				}

			}
, 			{
				"box" : 				{
					"maxclass" : "newobj",
					"text" : "sprintf bgcolor 0.53 0.75 0.53 %f",
					"patching_rect" : [ 51.0, 483.0, 173.0, 20.0 ],
					"id" : "obj-49",
					"fontname" : "Helvetica Neue",
					"numinlets" : 1,
					"numoutlets" : 1,
					"fontsize" : 11.0,
					"outlettype" : [ "" ]
				}

			}
, 			{
				"box" : 				{
					"maxclass" : "newobj",
					"text" : "t \"empty slot\"",
					"patching_rect" : [ 288.0, 738.0, 78.0, 20.0 ],
					"id" : "obj-41",
					"fontname" : "Helvetica Neue",
					"numinlets" : 1,
					"numoutlets" : 1,
					"fontsize" : 11.0,
					"outlettype" : [ "empty slot" ]
				}

			}
, 			{
				"box" : 				{
					"maxclass" : "newobj",
					"text" : "route empty",
					"patching_rect" : [ 288.0, 714.0, 70.0, 20.0 ],
					"id" : "obj-37",
					"fontname" : "Helvetica Neue",
					"numinlets" : 1,
					"numoutlets" : 2,
					"fontsize" : 11.0,
					"outlettype" : [ "", "" ]
				}

			}
, 			{
				"box" : 				{
					"maxclass" : "comment",
					"text" : "symbol i mm:0:0 /osc/address (rangemin) (rangemax)",
					"patching_rect" : [ 588.0, 103.0, 294.0, 20.0 ],
					"id" : "obj-50",
					"fontname" : "Helvetica Neue",
					"numinlets" : 1,
					"numoutlets" : 0,
					"fontsize" : 11.0
				}

			}
, 			{
				"box" : 				{
					"maxclass" : "newobj",
					"text" : "unpack s f f",
					"patching_rect" : [ 756.0, 204.0, 68.0, 20.0 ],
					"id" : "obj-35",
					"fontname" : "Helvetica Neue",
					"numinlets" : 1,
					"numoutlets" : 3,
					"fontsize" : 11.0,
					"outlettype" : [ "", "float", "float" ]
				}

			}
, 			{
				"box" : 				{
					"maxclass" : "outlet",
					"patching_rect" : [ 756.0, 234.0, 25.0, 25.0 ],
					"id" : "obj-28",
					"numinlets" : 1,
					"numoutlets" : 0,
					"comment" : ""
				}

			}
, 			{
				"box" : 				{
					"maxclass" : "newobj",
					"text" : "fromsymbol",
					"patching_rect" : [ 504.0, 228.0, 69.0, 20.0 ],
					"id" : "obj-48",
					"fontname" : "Helvetica Neue",
					"numinlets" : 1,
					"numoutlets" : 1,
					"fontsize" : 11.0,
					"outlettype" : [ "" ]
				}

			}
, 			{
				"box" : 				{
					"maxclass" : "newobj",
					"text" : "tosymbol",
					"patching_rect" : [ 468.0, 186.0, 56.0, 20.0 ],
					"id" : "obj-40",
					"fontname" : "Helvetica Neue",
					"numinlets" : 1,
					"numoutlets" : 1,
					"fontsize" : 11.0,
					"outlettype" : [ "" ]
				}

			}
, 			{
				"box" : 				{
					"maxclass" : "newobj",
					"text" : "s to_ps1",
					"color" : [ 0.254902, 0.705882, 0.8, 1.0 ],
					"patching_rect" : [ 450.0, 294.0, 52.0, 20.0 ],
					"id" : "obj-73",
					"fontname" : "Helvetica Neue",
					"numinlets" : 1,
					"numoutlets" : 0,
					"fontsize" : 11.0
				}

			}
, 			{
				"box" : 				{
					"maxclass" : "newobj",
					"text" : "prepend",
					"patching_rect" : [ 450.0, 252.0, 51.0, 20.0 ],
					"id" : "obj-47",
					"fontname" : "Helvetica Neue",
					"numinlets" : 1,
					"numoutlets" : 1,
					"fontsize" : 11.0,
					"outlettype" : [ "" ]
				}

			}
, 			{
				"box" : 				{
					"maxclass" : "newobj",
					"text" : "sprintf set setstoredvalue ::%s::mapping 1",
					"patching_rect" : [ 504.0, 162.0, 219.0, 20.0 ],
					"id" : "obj-46",
					"fontname" : "Helvetica Neue",
					"numinlets" : 1,
					"numoutlets" : 1,
					"fontsize" : 11.0,
					"outlettype" : [ "" ]
				}

			}
, 			{
				"box" : 				{
					"maxclass" : "newobj",
					"text" : "prepend name",
					"patching_rect" : [ 144.0, 36.0, 82.0, 20.0 ],
					"id" : "obj-36",
					"fontname" : "Helvetica Neue",
					"numinlets" : 1,
					"numoutlets" : 1,
					"fontsize" : 11.0,
					"outlettype" : [ "" ]
				}

			}
, 			{
				"box" : 				{
					"maxclass" : "newobj",
					"text" : "pattrmarker",
					"patching_rect" : [ 144.0, 60.0, 68.0, 20.0 ],
					"id" : "obj-33",
					"fontname" : "Helvetica Neue",
					"numinlets" : 1,
					"numoutlets" : 1,
					"fontsize" : 11.0,
					"outlettype" : [ "" ]
				}

			}
, 			{
				"box" : 				{
					"maxclass" : "newobj",
					"text" : "r [map]loadtrig",
					"color" : [ 0.654902, 0.411765, 0.929412, 1.0 ],
					"patching_rect" : [ 198.0, 114.0, 82.0, 20.0 ],
					"id" : "obj-30",
					"fontname" : "Helvetica Neue",
					"numinlets" : 0,
					"numoutlets" : 1,
					"fontsize" : 11.0,
					"outlettype" : [ "" ]
				}

			}
, 			{
				"box" : 				{
					"maxclass" : "newobj",
					"text" : "gate",
					"patching_rect" : [ 396.0, 186.0, 54.5, 20.0 ],
					"id" : "obj-29",
					"fontname" : "Helvetica Neue",
					"numinlets" : 2,
					"numoutlets" : 1,
					"fontsize" : 11.0,
					"outlettype" : [ "" ]
				}

			}
, 			{
				"box" : 				{
					"maxclass" : "newobj",
					"text" : "zl compare",
					"patching_rect" : [ 396.0, 162.0, 65.0, 20.0 ],
					"id" : "obj-27",
					"fontname" : "Helvetica Neue",
					"numinlets" : 2,
					"numoutlets" : 2,
					"fontsize" : 11.0,
					"outlettype" : [ "", "" ]
				}

			}
, 			{
				"box" : 				{
					"maxclass" : "newobj",
					"text" : "unpack s f f",
					"patching_rect" : [ 360.0, 240.0, 68.0, 20.0 ],
					"id" : "obj-45",
					"fontname" : "Helvetica Neue",
					"numinlets" : 1,
					"numoutlets" : 3,
					"fontsize" : 11.0,
					"outlettype" : [ "", "float", "float" ]
				}

			}
, 			{
				"box" : 				{
					"maxclass" : "newobj",
					"text" : "pack s s f f",
					"patching_rect" : [ 360.0, 270.0, 68.0, 20.0 ],
					"id" : "obj-44",
					"fontname" : "Helvetica Neue",
					"numinlets" : 4,
					"numoutlets" : 1,
					"fontsize" : 11.0,
					"outlettype" : [ "" ]
				}

			}
, 			{
				"box" : 				{
					"maxclass" : "newobj",
					"text" : "pack s f f",
					"patching_rect" : [ 432.0, 132.0, 73.0, 20.0 ],
					"id" : "obj-39",
					"fontname" : "Helvetica Neue",
					"numinlets" : 3,
					"numoutlets" : 1,
					"fontsize" : 11.0,
					"outlettype" : [ "" ]
				}

			}
, 			{
				"box" : 				{
					"maxclass" : "newobj",
					"text" : "unpack s i s s f f",
					"patching_rect" : [ 396.0, 102.0, 109.0, 20.0 ],
					"id" : "obj-38",
					"fontname" : "Helvetica Neue",
					"numinlets" : 1,
					"numoutlets" : 6,
					"fontsize" : 11.0,
					"outlettype" : [ "", "int", "", "", "float", "float" ]
				}

			}
, 			{
				"box" : 				{
					"maxclass" : "newobj",
					"text" : "r [map]save",
					"color" : [ 0.654902, 0.411765, 0.929412, 1.0 ],
					"patching_rect" : [ 396.0, 72.0, 68.0, 20.0 ],
					"id" : "obj-60",
					"fontname" : "Helvetica Neue",
					"numinlets" : 0,
					"numoutlets" : 1,
					"fontsize" : 11.0,
					"outlettype" : [ "" ]
				}

			}
, 			{
				"box" : 				{
					"maxclass" : "newobj",
					"text" : "s [map]load",
					"color" : [ 0.254902, 0.705882, 0.8, 1.0 ],
					"patching_rect" : [ 360.0, 294.0, 68.0, 20.0 ],
					"id" : "obj-34",
					"fontname" : "Helvetica Neue",
					"numinlets" : 1,
					"numoutlets" : 0,
					"fontsize" : 11.0
				}

			}
, 			{
				"box" : 				{
					"maxclass" : "newobj",
					"varname" : "mapping",
					"text" : "pattr mapping",
					"color" : [ 0.909804, 0.509804, 0.45098, 1.0 ],
					"patching_rect" : [ 360.0, 216.0, 80.0, 20.0 ],
					"id" : "obj-17",
					"fontname" : "Helvetica Neue",
					"numinlets" : 1,
					"numoutlets" : 3,
					"fontsize" : 11.0,
					"outlettype" : [ "", "", "" ],
					"restore" : [ "" ],
					"saved_object_attributes" : 					{
						"parameter_enable" : 0
					}
,
					"frozen_object_attributes" : 					{
						"thru" : 0,
						"default_active" : 1
					}

				}

			}
, 			{
				"box" : 				{
					"maxclass" : "newobj",
					"text" : "zl slice 1",
					"patching_rect" : [ 198.0, 720.0, 53.0, 20.0 ],
					"id" : "obj-26",
					"fontname" : "Helvetica Neue",
					"numinlets" : 2,
					"numoutlets" : 2,
					"fontsize" : 11.0,
					"outlettype" : [ "", "" ]
				}

			}
, 			{
				"box" : 				{
					"maxclass" : "newobj",
					"text" : "scale 0. 1.",
					"patching_rect" : [ 108.0, 750.0, 142.5, 20.0 ],
					"id" : "obj-21",
					"fontname" : "Helvetica Neue",
					"numinlets" : 6,
					"numoutlets" : 1,
					"fontsize" : 11.0,
					"outlettype" : [ "" ]
				}

			}
, 			{
				"box" : 				{
					"maxclass" : "comment",
					"text" : "this is scaled",
					"patching_rect" : [ 306.0, 636.0, 76.0, 20.0 ],
					"id" : "obj-20",
					"fontname" : "Helvetica Neue",
					"numinlets" : 1,
					"numoutlets" : 0,
					"fontsize" : 11.0
				}

			}
, 			{
				"box" : 				{
					"maxclass" : "comment",
					"text" : "normalised 0. - 1.",
					"patching_rect" : [ 126.0, 636.0, 106.0, 20.0 ],
					"id" : "obj-18",
					"fontname" : "Helvetica Neue",
					"numinlets" : 1,
					"numoutlets" : 0,
					"fontsize" : 11.0
				}

			}
, 			{
				"box" : 				{
					"maxclass" : "newobj",
					"text" : "receive",
					"color" : [ 0.654902, 0.411765, 0.929412, 1.0 ],
					"patching_rect" : [ 108.0, 684.0, 46.0, 20.0 ],
					"id" : "obj-15",
					"fontname" : "Helvetica Neue",
					"numinlets" : 1,
					"numoutlets" : 1,
					"fontsize" : 11.0,
					"outlettype" : [ "" ]
				}

			}
, 			{
				"box" : 				{
					"maxclass" : "newobj",
					"text" : "sprintf set /o%s",
					"patching_rect" : [ 108.0, 660.0, 89.0, 20.0 ],
					"id" : "obj-9",
					"fontname" : "Helvetica Neue",
					"numinlets" : 1,
					"numoutlets" : 1,
					"fontsize" : 11.0,
					"outlettype" : [ "" ]
				}

			}
, 			{
				"box" : 				{
					"maxclass" : "newobj",
					"text" : "prepend set",
					"patching_rect" : [ 288.0, 660.0, 69.0, 20.0 ],
					"id" : "obj-16",
					"fontname" : "Helvetica Neue",
					"numinlets" : 1,
					"numoutlets" : 1,
					"fontsize" : 11.0,
					"outlettype" : [ "" ]
				}

			}
, 			{
				"box" : 				{
					"maxclass" : "newobj",
					"text" : "receive",
					"color" : [ 0.654902, 0.411765, 0.929412, 1.0 ],
					"patching_rect" : [ 288.0, 684.0, 46.0, 20.0 ],
					"id" : "obj-14",
					"fontname" : "Helvetica Neue",
					"numinlets" : 1,
					"numoutlets" : 1,
					"fontsize" : 11.0,
					"outlettype" : [ "" ]
				}

			}
, 			{
				"box" : 				{
					"maxclass" : "newobj",
					"text" : "zl reg",
					"patching_rect" : [ 414.0, 660.0, 37.0, 20.0 ],
					"id" : "obj-11",
					"fontname" : "Helvetica Neue",
					"numinlets" : 2,
					"numoutlets" : 2,
					"fontsize" : 11.0,
					"outlettype" : [ "", "" ]
				}

			}
, 			{
				"box" : 				{
					"maxclass" : "newobj",
					"text" : "loadmess #1 #2",
					"patching_rect" : [ 432.0, 630.0, 89.0, 20.0 ],
					"id" : "obj-8",
					"fontname" : "Helvetica Neue",
					"numinlets" : 1,
					"numoutlets" : 1,
					"fontsize" : 11.0,
					"outlettype" : [ "" ]
				}

			}
, 			{
				"box" : 				{
					"maxclass" : "newobj",
					"text" : "t b b",
					"patching_rect" : [ 414.0, 588.0, 127.0, 20.0 ],
					"id" : "obj-7",
					"fontname" : "Helvetica Neue",
					"numinlets" : 1,
					"numoutlets" : 2,
					"fontsize" : 11.0,
					"outlettype" : [ "bang", "bang" ]
				}

			}
, 			{
				"box" : 				{
					"maxclass" : "newobj",
					"text" : "s [map]scale",
					"color" : [ 0.254902, 0.705882, 0.8, 1.0 ],
					"patching_rect" : [ 414.0, 690.0, 72.0, 20.0 ],
					"id" : "obj-3",
					"fontname" : "Helvetica Neue",
					"numinlets" : 1,
					"numoutlets" : 0,
					"fontsize" : 11.0
				}

			}
, 			{
				"box" : 				{
					"maxclass" : "newobj",
					"text" : "t b b s s s",
					"patching_rect" : [ 36.0, 60.0, 91.0, 20.0 ],
					"id" : "obj-10",
					"fontname" : "Helvetica Neue",
					"numinlets" : 1,
					"numoutlets" : 5,
					"fontsize" : 11.0,
					"outlettype" : [ "bang", "bang", "", "", "" ]
				}

			}
, 			{
				"box" : 				{
					"maxclass" : "message",
					"text" : "bang",
					"patching_rect" : [ 54.0, 96.0, 165.0, 18.0 ],
					"id" : "obj-56",
					"fontname" : "Helvetica Neue",
					"numinlets" : 2,
					"numoutlets" : 1,
					"fontsize" : 11.0,
					"outlettype" : [ "" ]
				}

			}
, 			{
				"box" : 				{
					"maxclass" : "inlet",
					"patching_rect" : [ 36.0, 24.0, 25.0, 25.0 ],
					"id" : "obj-6",
					"numinlets" : 0,
					"numoutlets" : 1,
					"outlettype" : [ "" ],
					"comment" : "loadbang / loadmess #1"
				}

			}
, 			{
				"box" : 				{
					"maxclass" : "inlet",
					"patching_rect" : [ 378.0, 552.0, 25.0, 25.0 ],
					"id" : "obj-5",
					"numinlets" : 0,
					"numoutlets" : 1,
					"outlettype" : [ "" ],
					"comment" : "inlet from ubutton left outlet"
				}

			}
, 			{
				"box" : 				{
					"maxclass" : "outlet",
					"patching_rect" : [ 234.0, 534.0, 25.0, 25.0 ],
					"id" : "obj-2",
					"numinlets" : 1,
					"numoutlets" : 0,
					"comment" : "state-display"
				}

			}
, 			{
				"box" : 				{
					"maxclass" : "newobj",
					"text" : "zl reg",
					"patching_rect" : [ 522.0, 660.0, 37.0, 20.0 ],
					"id" : "obj-65",
					"fontname" : "Helvetica Neue",
					"numinlets" : 2,
					"numoutlets" : 2,
					"fontsize" : 11.0,
					"outlettype" : [ "", "" ]
				}

			}
, 			{
				"box" : 				{
					"maxclass" : "newobj",
					"text" : "sprintf bgcolor 0.17 0.33 0.38 %f",
					"patching_rect" : [ 234.0, 438.0, 173.0, 20.0 ],
					"id" : "obj-64",
					"fontname" : "Helvetica Neue",
					"numinlets" : 1,
					"numoutlets" : 1,
					"fontsize" : 11.0,
					"outlettype" : [ "" ]
				}

			}
, 			{
				"box" : 				{
					"maxclass" : "newobj",
					"text" : "/ 2.",
					"patching_rect" : [ 234.0, 408.0, 32.5, 20.0 ],
					"id" : "obj-1",
					"fontname" : "Akzidenz-Grotesk (R) Schulbuch Regular",
					"numinlets" : 2,
					"numoutlets" : 1,
					"fontsize" : 11.0,
					"outlettype" : [ "float" ]
				}

			}
, 			{
				"box" : 				{
					"maxclass" : "newobj",
					"text" : "s [map]address",
					"color" : [ 0.254902, 0.705882, 0.8, 1.0 ],
					"patching_rect" : [ 522.0, 690.0, 86.0, 20.0 ],
					"id" : "obj-63",
					"fontname" : "Helvetica Neue",
					"numinlets" : 1,
					"numoutlets" : 0,
					"fontsize" : 11.0
				}

			}
, 			{
				"box" : 				{
					"maxclass" : "comment",
					"text" : "this deselects the previous item when a new one is clicked",
					"linecount" : 3,
					"patching_rect" : [ 594.0, 270.0, 109.0, 46.0 ],
					"id" : "obj-62",
					"fontname" : "Helvetica Neue",
					"numinlets" : 1,
					"numoutlets" : 0,
					"fontsize" : 11.0
				}

			}
, 			{
				"box" : 				{
					"maxclass" : "newobj",
					"text" : "sel 0",
					"patching_rect" : [ 612.0, 390.0, 34.0, 20.0 ],
					"id" : "obj-13",
					"fontname" : "Akzidenz-Grotesk (R) Schulbuch Regular",
					"numinlets" : 2,
					"numoutlets" : 2,
					"fontsize" : 11.0,
					"outlettype" : [ "bang", "" ]
				}

			}
, 			{
				"box" : 				{
					"maxclass" : "newobj",
					"text" : "t 0",
					"patching_rect" : [ 612.0, 414.0, 23.0, 20.0 ],
					"id" : "obj-22",
					"fontname" : "Akzidenz-Grotesk (R) Schulbuch Regular",
					"numinlets" : 1,
					"numoutlets" : 1,
					"fontsize" : 11.0,
					"outlettype" : [ "int" ]
				}

			}
, 			{
				"box" : 				{
					"maxclass" : "message",
					"text" : "set $1",
					"patching_rect" : [ 612.0, 438.0, 41.0, 18.0 ],
					"id" : "obj-42",
					"fontname" : "Akzidenz-Grotesk (R) Schulbuch Regular",
					"numinlets" : 2,
					"numoutlets" : 1,
					"fontsize" : 11.0,
					"outlettype" : [ "" ]
				}

			}
, 			{
				"box" : 				{
					"maxclass" : "newobj",
					"text" : "zl compare",
					"color" : [ 0.470588, 0.113725, 0.545098, 1.0 ],
					"patching_rect" : [ 612.0, 366.0, 73.0, 20.0 ],
					"id" : "obj-24",
					"fontname" : "Akzidenz-Grotesk (R) Schulbuch Regular",
					"numinlets" : 2,
					"numoutlets" : 2,
					"fontsize" : 11.0,
					"outlettype" : [ "", "" ]
				}

			}
, 			{
				"box" : 				{
					"maxclass" : "newobj",
					"text" : "r [map]address",
					"color" : [ 0.654902, 0.411765, 0.929412, 1.0 ],
					"patching_rect" : [ 612.0, 324.0, 87.0, 20.0 ],
					"id" : "obj-43",
					"fontname" : "Akzidenz-Grotesk (R) Schulbuch Regular",
					"numinlets" : 0,
					"numoutlets" : 1,
					"fontsize" : 11.0,
					"outlettype" : [ "" ]
				}

			}
, 			{
				"box" : 				{
					"maxclass" : "newobj",
					"text" : "prepend ignoreclick",
					"patching_rect" : [ 450.0, 438.0, 107.0, 20.0 ],
					"id" : "obj-32",
					"fontname" : "Helvetica Neue",
					"numinlets" : 1,
					"numoutlets" : 1,
					"fontsize" : 11.0,
					"outlettype" : [ "" ]
				}

			}
, 			{
				"box" : 				{
					"maxclass" : "newobj",
					"text" : "prepend ignoreclick",
					"patching_rect" : [ 324.0, 408.0, 107.0, 20.0 ],
					"id" : "obj-31",
					"fontname" : "Helvetica Neue",
					"numinlets" : 1,
					"numoutlets" : 1,
					"fontsize" : 11.0,
					"outlettype" : [ "" ]
				}

			}
, 			{
				"box" : 				{
					"maxclass" : "message",
					"text" : "set 0",
					"patching_rect" : [ 558.0, 438.0, 35.0, 18.0 ],
					"id" : "obj-25",
					"fontname" : "Helvetica Neue",
					"numinlets" : 2,
					"numoutlets" : 1,
					"fontsize" : 11.0,
					"outlettype" : [ "" ]
				}

			}
, 			{
				"box" : 				{
					"maxclass" : "newobj",
					"text" : "sel 0",
					"patching_rect" : [ 558.0, 408.0, 34.0, 20.0 ],
					"id" : "obj-23",
					"fontname" : "Helvetica Neue",
					"numinlets" : 2,
					"numoutlets" : 2,
					"fontsize" : 11.0,
					"outlettype" : [ "bang", "" ]
				}

			}
, 			{
				"box" : 				{
					"maxclass" : "newobj",
					"text" : "== 0",
					"patching_rect" : [ 450.0, 408.0, 33.0, 20.0 ],
					"id" : "obj-19",
					"fontname" : "Helvetica Neue",
					"numinlets" : 2,
					"numoutlets" : 1,
					"fontsize" : 11.0,
					"outlettype" : [ "int" ]
				}

			}
, 			{
				"box" : 				{
					"maxclass" : "newobj",
					"text" : "r [map]mode",
					"color" : [ 0.654902, 0.411765, 0.929412, 1.0 ],
					"patching_rect" : [ 324.0, 366.0, 73.0, 20.0 ],
					"id" : "obj-12",
					"fontname" : "Helvetica Neue",
					"numinlets" : 0,
					"numoutlets" : 1,
					"fontsize" : 11.0,
					"outlettype" : [ "" ]
				}

			}
, 			{
				"box" : 				{
					"maxclass" : "inlet",
					"patching_rect" : [ 414.0, 552.0, 25.0, 25.0 ],
					"id" : "obj-66",
					"numinlets" : 0,
					"numoutlets" : 1,
					"outlettype" : [ "" ],
					"comment" : "inlet from ubutton middle-left outlet"
				}

			}
, 			{
				"box" : 				{
					"maxclass" : "outlet",
					"patching_rect" : [ 630.0, 834.0, 25.0, 25.0 ],
					"id" : "obj-68",
					"numinlets" : 1,
					"numoutlets" : 0,
					"comment" : "ignore-click when in mapping mode"
				}

			}
, 			{
				"box" : 				{
					"maxclass" : "outlet",
					"patching_rect" : [ 450.0, 480.0, 25.0, 25.0 ],
					"id" : "obj-69",
					"numinlets" : 1,
					"numoutlets" : 0,
					"comment" : "outlet to ubutton"
				}

			}
 ],
		"lines" : [ 			{
				"patchline" : 				{
					"source" : [ "obj-14", 0 ],
					"destination" : [ "obj-79", 0 ],
					"hidden" : 0,
					"midpoints" : [  ]
				}

			}
, 			{
				"patchline" : 				{
					"source" : [ "obj-79", 0 ],
					"destination" : [ "obj-54", 0 ],
					"hidden" : 0,
					"midpoints" : [  ]
				}

			}
, 			{
				"patchline" : 				{
					"source" : [ "obj-15", 0 ],
					"destination" : [ "obj-78", 0 ],
					"hidden" : 0,
					"midpoints" : [  ]
				}

			}
, 			{
				"patchline" : 				{
					"source" : [ "obj-78", 0 ],
					"destination" : [ "obj-54", 0 ],
					"hidden" : 0,
					"midpoints" : [  ]
				}

			}
, 			{
				"patchline" : 				{
					"source" : [ "obj-71", 0 ],
					"destination" : [ "obj-2", 0 ],
					"hidden" : 0,
					"midpoints" : [  ]
				}

			}
, 			{
				"patchline" : 				{
					"source" : [ "obj-49", 0 ],
					"destination" : [ "obj-71", 0 ],
					"hidden" : 0,
					"midpoints" : [  ]
				}

			}
, 			{
				"patchline" : 				{
					"source" : [ "obj-64", 0 ],
					"destination" : [ "obj-71", 0 ],
					"hidden" : 0,
					"midpoints" : [  ]
				}

			}
, 			{
				"patchline" : 				{
					"source" : [ "obj-72", 0 ],
					"destination" : [ "obj-75", 0 ],
					"hidden" : 0,
					"midpoints" : [  ]
				}

			}
, 			{
				"patchline" : 				{
					"source" : [ "obj-72", 1 ],
					"destination" : [ "obj-76", 0 ],
					"hidden" : 0,
					"midpoints" : [  ]
				}

			}
, 			{
				"patchline" : 				{
					"source" : [ "obj-77", 0 ],
					"destination" : [ "obj-72", 1 ],
					"hidden" : 0,
					"midpoints" : [  ]
				}

			}
, 			{
				"patchline" : 				{
					"source" : [ "obj-72", 1 ],
					"destination" : [ "obj-77", 0 ],
					"hidden" : 0,
					"midpoints" : [  ]
				}

			}
, 			{
				"patchline" : 				{
					"source" : [ "obj-75", 0 ],
					"destination" : [ "obj-68", 0 ],
					"hidden" : 0,
					"midpoints" : [  ]
				}

			}
, 			{
				"patchline" : 				{
					"source" : [ "obj-76", 0 ],
					"destination" : [ "obj-68", 0 ],
					"hidden" : 0,
					"midpoints" : [  ]
				}

			}
, 			{
				"patchline" : 				{
					"source" : [ "obj-53", 2 ],
					"destination" : [ "obj-76", 1 ],
					"hidden" : 0,
					"midpoints" : [  ]
				}

			}
, 			{
				"patchline" : 				{
					"source" : [ "obj-53", 1 ],
					"destination" : [ "obj-75", 1 ],
					"hidden" : 0,
					"midpoints" : [  ]
				}

			}
, 			{
				"patchline" : 				{
					"source" : [ "obj-74", 0 ],
					"destination" : [ "obj-72", 0 ],
					"hidden" : 0,
					"midpoints" : [  ]
				}

			}
, 			{
				"patchline" : 				{
					"source" : [ "obj-67", 1 ],
					"destination" : [ "obj-74", 0 ],
					"hidden" : 0,
					"midpoints" : [  ]
				}

			}
, 			{
				"patchline" : 				{
					"source" : [ "obj-53", 2 ],
					"destination" : [ "obj-74", 1 ],
					"hidden" : 0,
					"midpoints" : [  ]
				}

			}
, 			{
				"patchline" : 				{
					"source" : [ "obj-61", 0 ],
					"destination" : [ "obj-67", 0 ],
					"hidden" : 0,
					"midpoints" : [ 441.5, 798.0, 315.5, 798.0 ]
				}

			}
, 			{
				"patchline" : 				{
					"source" : [ "obj-37", 1 ],
					"destination" : [ "obj-67", 1 ],
					"hidden" : 0,
					"midpoints" : [  ]
				}

			}
, 			{
				"patchline" : 				{
					"source" : [ "obj-70", 0 ],
					"destination" : [ "obj-67", 0 ],
					"hidden" : 0,
					"midpoints" : [ 243.5, 798.5, 315.5, 798.5 ]
				}

			}
, 			{
				"patchline" : 				{
					"source" : [ "obj-67", 0 ],
					"destination" : [ "obj-68", 0 ],
					"hidden" : 0,
					"midpoints" : [ 315.5, 828.0, 639.5, 828.0 ]
				}

			}
, 			{
				"patchline" : 				{
					"source" : [ "obj-55", 0 ],
					"destination" : [ "obj-61", 0 ],
					"hidden" : 0,
					"midpoints" : [  ]
				}

			}
, 			{
				"patchline" : 				{
					"source" : [ "obj-4", 0 ],
					"destination" : [ "obj-55", 0 ],
					"hidden" : 0,
					"midpoints" : [  ]
				}

			}
, 			{
				"patchline" : 				{
					"source" : [ "obj-39", 0 ],
					"destination" : [ "obj-53", 0 ],
					"hidden" : 0,
					"midpoints" : [  ]
				}

			}
, 			{
				"patchline" : 				{
					"source" : [ "obj-35", 0 ],
					"destination" : [ "obj-28", 0 ],
					"hidden" : 0,
					"midpoints" : [  ]
				}

			}
, 			{
				"patchline" : 				{
					"source" : [ "obj-10", 4 ],
					"destination" : [ "obj-36", 0 ],
					"hidden" : 0,
					"midpoints" : [  ]
				}

			}
, 			{
				"patchline" : 				{
					"source" : [ "obj-6", 0 ],
					"destination" : [ "obj-10", 0 ],
					"hidden" : 0,
					"midpoints" : [  ]
				}

			}
, 			{
				"patchline" : 				{
					"source" : [ "obj-10", 2 ],
					"destination" : [ "obj-16", 0 ],
					"hidden" : 0,
					"midpoints" : [ 81.5, 84.5, 297.5, 84.5 ]
				}

			}
, 			{
				"patchline" : 				{
					"source" : [ "obj-10", 2 ],
					"destination" : [ "obj-56", 1 ],
					"hidden" : 0,
					"midpoints" : [ 81.5, 84.5, 209.5, 84.5 ]
				}

			}
, 			{
				"patchline" : 				{
					"source" : [ "obj-10", 2 ],
					"destination" : [ "obj-9", 0 ],
					"hidden" : 0,
					"midpoints" : [ 81.5, 84.5, 117.5, 84.5 ]
				}

			}
, 			{
				"patchline" : 				{
					"source" : [ "obj-10", 1 ],
					"destination" : [ "obj-56", 0 ],
					"hidden" : 0,
					"midpoints" : [  ]
				}

			}
, 			{
				"patchline" : 				{
					"source" : [ "obj-10", 2 ],
					"destination" : [ "obj-44", 1 ],
					"hidden" : 0,
					"midpoints" : [ 81.5, 84.0, 333.0, 84.0, 333.0, 264.0, 385.833344, 264.0 ]
				}

			}
, 			{
				"patchline" : 				{
					"source" : [ "obj-10", 2 ],
					"destination" : [ "obj-27", 1 ],
					"hidden" : 0,
					"midpoints" : [ 81.5, 84.0, 387.0, 84.0, 387.0, 156.0, 451.5, 156.0 ]
				}

			}
, 			{
				"patchline" : 				{
					"source" : [ "obj-10", 3 ],
					"destination" : [ "obj-46", 0 ],
					"hidden" : 0,
					"midpoints" : [  ]
				}

			}
, 			{
				"patchline" : 				{
					"source" : [ "obj-47", 0 ],
					"destination" : [ "obj-73", 0 ],
					"hidden" : 0,
					"midpoints" : [  ]
				}

			}
, 			{
				"patchline" : 				{
					"source" : [ "obj-48", 0 ],
					"destination" : [ "obj-45", 0 ],
					"hidden" : 0,
					"midpoints" : [  ]
				}

			}
, 			{
				"patchline" : 				{
					"source" : [ "obj-17", 0 ],
					"destination" : [ "obj-48", 0 ],
					"hidden" : 0,
					"midpoints" : [  ]
				}

			}
, 			{
				"patchline" : 				{
					"source" : [ "obj-29", 0 ],
					"destination" : [ "obj-40", 0 ],
					"hidden" : 0,
					"midpoints" : [  ]
				}

			}
, 			{
				"patchline" : 				{
					"source" : [ "obj-40", 0 ],
					"destination" : [ "obj-17", 0 ],
					"hidden" : 0,
					"midpoints" : [ 477.5, 210.5, 369.5, 210.5 ]
				}

			}
, 			{
				"patchline" : 				{
					"source" : [ "obj-40", 0 ],
					"destination" : [ "obj-47", 0 ],
					"hidden" : 0,
					"midpoints" : [ 477.5, 210.5, 459.5, 210.5 ]
				}

			}
, 			{
				"patchline" : 				{
					"source" : [ "obj-46", 0 ],
					"destination" : [ "obj-47", 0 ],
					"hidden" : 0,
					"midpoints" : [  ]
				}

			}
, 			{
				"patchline" : 				{
					"source" : [ "obj-21", 0 ],
					"destination" : [ "obj-68", 0 ],
					"hidden" : 0,
					"midpoints" : [ 117.5, 828.0, 639.5, 828.0 ]
				}

			}
, 			{
				"patchline" : 				{
					"source" : [ "obj-8", 0 ],
					"destination" : [ "obj-26", 0 ],
					"hidden" : 0,
					"midpoints" : [ 441.5, 654.5, 207.5, 654.5 ]
				}

			}
, 			{
				"patchline" : 				{
					"source" : [ "obj-26", 1 ],
					"destination" : [ "obj-21", 4 ],
					"hidden" : 0,
					"midpoints" : [  ]
				}

			}
, 			{
				"patchline" : 				{
					"source" : [ "obj-26", 0 ],
					"destination" : [ "obj-21", 3 ],
					"hidden" : 0,
					"midpoints" : [  ]
				}

			}
, 			{
				"patchline" : 				{
					"source" : [ "obj-15", 0 ],
					"destination" : [ "obj-21", 0 ],
					"hidden" : 0,
					"midpoints" : [  ]
				}

			}
, 			{
				"patchline" : 				{
					"source" : [ "obj-9", 0 ],
					"destination" : [ "obj-15", 0 ],
					"hidden" : 0,
					"midpoints" : [  ]
				}

			}
, 			{
				"patchline" : 				{
					"source" : [ "obj-11", 0 ],
					"destination" : [ "obj-3", 0 ],
					"hidden" : 0,
					"midpoints" : [  ]
				}

			}
, 			{
				"patchline" : 				{
					"source" : [ "obj-7", 0 ],
					"destination" : [ "obj-11", 0 ],
					"hidden" : 0,
					"midpoints" : [  ]
				}

			}
, 			{
				"patchline" : 				{
					"source" : [ "obj-8", 0 ],
					"destination" : [ "obj-11", 1 ],
					"hidden" : 0,
					"midpoints" : [  ]
				}

			}
, 			{
				"patchline" : 				{
					"source" : [ "obj-66", 0 ],
					"destination" : [ "obj-7", 0 ],
					"hidden" : 0,
					"midpoints" : [  ]
				}

			}
, 			{
				"patchline" : 				{
					"source" : [ "obj-7", 1 ],
					"destination" : [ "obj-65", 0 ],
					"hidden" : 0,
					"midpoints" : [  ]
				}

			}
, 			{
				"patchline" : 				{
					"source" : [ "obj-23", 0 ],
					"destination" : [ "obj-25", 0 ],
					"hidden" : 0,
					"midpoints" : [  ]
				}

			}
, 			{
				"patchline" : 				{
					"source" : [ "obj-19", 0 ],
					"destination" : [ "obj-32", 0 ],
					"hidden" : 0,
					"midpoints" : [  ]
				}

			}
, 			{
				"patchline" : 				{
					"source" : [ "obj-13", 0 ],
					"destination" : [ "obj-22", 0 ],
					"hidden" : 0,
					"midpoints" : [  ]
				}

			}
, 			{
				"patchline" : 				{
					"source" : [ "obj-24", 0 ],
					"destination" : [ "obj-13", 0 ],
					"hidden" : 0,
					"midpoints" : [  ]
				}

			}
, 			{
				"patchline" : 				{
					"source" : [ "obj-22", 0 ],
					"destination" : [ "obj-42", 0 ],
					"hidden" : 0,
					"midpoints" : [  ]
				}

			}
, 			{
				"patchline" : 				{
					"source" : [ "obj-43", 0 ],
					"destination" : [ "obj-24", 0 ],
					"hidden" : 0,
					"midpoints" : [  ]
				}

			}
, 			{
				"patchline" : 				{
					"source" : [ "obj-1", 0 ],
					"destination" : [ "obj-64", 0 ],
					"hidden" : 0,
					"midpoints" : [  ]
				}

			}
, 			{
				"patchline" : 				{
					"source" : [ "obj-65", 0 ],
					"destination" : [ "obj-63", 0 ],
					"hidden" : 0,
					"midpoints" : [  ]
				}

			}
, 			{
				"patchline" : 				{
					"source" : [ "obj-12", 0 ],
					"destination" : [ "obj-1", 0 ],
					"hidden" : 0,
					"midpoints" : [ 333.5, 396.5, 243.5, 396.5 ]
				}

			}
, 			{
				"patchline" : 				{
					"source" : [ "obj-12", 0 ],
					"destination" : [ "obj-31", 0 ],
					"hidden" : 0,
					"midpoints" : [  ]
				}

			}
, 			{
				"patchline" : 				{
					"source" : [ "obj-12", 0 ],
					"destination" : [ "obj-23", 0 ],
					"hidden" : 0,
					"midpoints" : [ 333.5, 396.5, 567.5, 396.5 ]
				}

			}
, 			{
				"patchline" : 				{
					"source" : [ "obj-12", 0 ],
					"destination" : [ "obj-19", 0 ],
					"hidden" : 0,
					"midpoints" : [ 333.5, 396.5, 459.5, 396.5 ]
				}

			}
, 			{
				"patchline" : 				{
					"source" : [ "obj-31", 0 ],
					"destination" : [ "obj-68", 0 ],
					"hidden" : 0,
					"midpoints" : [ 333.5, 510.5, 639.5, 510.5 ]
				}

			}
, 			{
				"patchline" : 				{
					"source" : [ "obj-32", 0 ],
					"destination" : [ "obj-69", 0 ],
					"hidden" : 0,
					"midpoints" : [  ]
				}

			}
, 			{
				"patchline" : 				{
					"source" : [ "obj-25", 0 ],
					"destination" : [ "obj-69", 0 ],
					"hidden" : 0,
					"midpoints" : [ 567.5, 467.5, 459.5, 467.5 ]
				}

			}
, 			{
				"patchline" : 				{
					"source" : [ "obj-42", 0 ],
					"destination" : [ "obj-69", 0 ],
					"hidden" : 0,
					"midpoints" : [ 621.5, 467.5, 459.5, 467.5 ]
				}

			}
, 			{
				"patchline" : 				{
					"source" : [ "obj-56", 0 ],
					"destination" : [ "obj-65", 1 ],
					"hidden" : 0,
					"midpoints" : [ 63.5, 618.5, 549.5, 618.5 ]
				}

			}
, 			{
				"patchline" : 				{
					"source" : [ "obj-56", 0 ],
					"destination" : [ "obj-24", 1 ],
					"hidden" : 0,
					"midpoints" : [ 63.5, 354.5, 675.5, 354.5 ]
				}

			}
, 			{
				"patchline" : 				{
					"source" : [ "obj-16", 0 ],
					"destination" : [ "obj-14", 0 ],
					"hidden" : 0,
					"midpoints" : [  ]
				}

			}
, 			{
				"patchline" : 				{
					"source" : [ "obj-60", 0 ],
					"destination" : [ "obj-38", 0 ],
					"hidden" : 0,
					"midpoints" : [  ]
				}

			}
, 			{
				"patchline" : 				{
					"source" : [ "obj-38", 2 ],
					"destination" : [ "obj-39", 0 ],
					"hidden" : 0,
					"midpoints" : [  ]
				}

			}
, 			{
				"patchline" : 				{
					"source" : [ "obj-38", 4 ],
					"destination" : [ "obj-39", 1 ],
					"hidden" : 0,
					"midpoints" : [  ]
				}

			}
, 			{
				"patchline" : 				{
					"source" : [ "obj-38", 5 ],
					"destination" : [ "obj-39", 2 ],
					"hidden" : 0,
					"midpoints" : [  ]
				}

			}
, 			{
				"patchline" : 				{
					"source" : [ "obj-45", 2 ],
					"destination" : [ "obj-44", 3 ],
					"hidden" : 0,
					"midpoints" : [  ]
				}

			}
, 			{
				"patchline" : 				{
					"source" : [ "obj-45", 1 ],
					"destination" : [ "obj-44", 2 ],
					"hidden" : 0,
					"midpoints" : [  ]
				}

			}
, 			{
				"patchline" : 				{
					"source" : [ "obj-45", 0 ],
					"destination" : [ "obj-44", 0 ],
					"hidden" : 0,
					"midpoints" : [  ]
				}

			}
, 			{
				"patchline" : 				{
					"source" : [ "obj-44", 0 ],
					"destination" : [ "obj-34", 0 ],
					"hidden" : 0,
					"midpoints" : [  ]
				}

			}
, 			{
				"patchline" : 				{
					"source" : [ "obj-38", 3 ],
					"destination" : [ "obj-27", 0 ],
					"hidden" : 0,
					"midpoints" : [ 459.5, 126.5, 405.5, 126.5 ]
				}

			}
, 			{
				"patchline" : 				{
					"source" : [ "obj-27", 0 ],
					"destination" : [ "obj-29", 0 ],
					"hidden" : 0,
					"midpoints" : [  ]
				}

			}
, 			{
				"patchline" : 				{
					"source" : [ "obj-39", 0 ],
					"destination" : [ "obj-29", 1 ],
					"hidden" : 0,
					"midpoints" : [  ]
				}

			}
, 			{
				"patchline" : 				{
					"source" : [ "obj-36", 0 ],
					"destination" : [ "obj-33", 0 ],
					"hidden" : 0,
					"midpoints" : [  ]
				}

			}
, 			{
				"patchline" : 				{
					"source" : [ "obj-30", 0 ],
					"destination" : [ "obj-17", 0 ],
					"hidden" : 0,
					"midpoints" : [  ]
				}

			}
, 			{
				"patchline" : 				{
					"source" : [ "obj-14", 0 ],
					"destination" : [ "obj-37", 0 ],
					"hidden" : 0,
					"midpoints" : [  ]
				}

			}
, 			{
				"patchline" : 				{
					"source" : [ "obj-41", 0 ],
					"destination" : [ "obj-40", 0 ],
					"hidden" : 0,
					"midpoints" : [  ]
				}

			}
, 			{
				"patchline" : 				{
					"source" : [ "obj-37", 0 ],
					"destination" : [ "obj-41", 0 ],
					"hidden" : 0,
					"midpoints" : [  ]
				}

			}
, 			{
				"patchline" : 				{
					"source" : [ "obj-54", 0 ],
					"destination" : [ "obj-52", 0 ],
					"hidden" : 0,
					"midpoints" : [  ]
				}

			}
, 			{
				"patchline" : 				{
					"source" : [ "obj-58", 0 ],
					"destination" : [ "obj-54", 1 ],
					"hidden" : 0,
					"midpoints" : [  ]
				}

			}
, 			{
				"patchline" : 				{
					"source" : [ "obj-54", 0 ],
					"destination" : [ "obj-57", 0 ],
					"hidden" : 0,
					"midpoints" : [  ]
				}

			}
, 			{
				"patchline" : 				{
					"source" : [ "obj-52", 0 ],
					"destination" : [ "obj-54", 1 ],
					"hidden" : 0,
					"midpoints" : [  ]
				}

			}
, 			{
				"patchline" : 				{
					"source" : [ "obj-51", 0 ],
					"destination" : [ "obj-49", 0 ],
					"hidden" : 0,
					"midpoints" : [  ]
				}

			}
, 			{
				"patchline" : 				{
					"source" : [ "obj-59", 0 ],
					"destination" : [ "obj-51", 0 ],
					"hidden" : 0,
					"midpoints" : [  ]
				}

			}
, 			{
				"patchline" : 				{
					"source" : [ "obj-52", 0 ],
					"destination" : [ "obj-59", 0 ],
					"hidden" : 0,
					"midpoints" : [  ]
				}

			}
, 			{
				"patchline" : 				{
					"source" : [ "obj-57", 0 ],
					"destination" : [ "obj-51", 0 ],
					"hidden" : 0,
					"midpoints" : [  ]
				}

			}
, 			{
				"patchline" : 				{
					"source" : [ "obj-29", 0 ],
					"destination" : [ "obj-35", 0 ],
					"hidden" : 0,
					"midpoints" : [  ]
				}

			}
, 			{
				"patchline" : 				{
					"source" : [ "obj-48", 0 ],
					"destination" : [ "obj-35", 0 ],
					"hidden" : 0,
					"midpoints" : [  ]
				}

			}
, 			{
				"patchline" : 				{
					"source" : [ "obj-41", 0 ],
					"destination" : [ "obj-28", 0 ],
					"hidden" : 0,
					"midpoints" : [  ]
				}

			}
 ]
	}

}
