{
	"patcher" : 	{
		"fileversion" : 1,
		"rect" : [ 0.0, 44.0, 968.0, 521.0 ],
		"bgcolor" : [ 0.537255, 0.537255, 0.537255, 1.0 ],
		"bglocked" : 0,
		"defrect" : [ 0.0, 44.0, 968.0, 521.0 ],
		"openrect" : [ 0.0, 0.0, 0.0, 0.0 ],
		"openinpresentation" : 1,
		"default_fontsize" : 11.0,
		"default_fontface" : 0,
		"default_fontname" : "Helvetica Neue",
		"gridonopen" : 0,
		"gridsize" : [ 18.0, 6.0 ],
		"gridsnaponopen" : 0,
		"toolbarvisible" : 1,
		"boxanimatetime" : 0,
		"imprint" : 0,
		"enablehscroll" : 1,
		"enablevscroll" : 1,
		"devicewidth" : 0.0,
		"boxes" : [ 			{
				"box" : 				{
					"maxclass" : "newobj",
					"text" : "zl change",
					"presentation_rect" : [ 477.0, 204.0, 0.0, 0.0 ],
					"numinlets" : 2,
					"fontname" : "Helvetica Neue",
					"numoutlets" : 2,
					"patching_rect" : [ 486.0, 204.0, 58.0, 20.0 ],
					"id" : "obj-12",
					"outlettype" : [ "", "" ],
					"fontsize" : 11.0
				}

			}
, 			{
				"box" : 				{
					"maxclass" : "newobj",
					"text" : "zl change",
					"presentation_rect" : [ 308.0, 208.0, 0.0, 0.0 ],
					"numinlets" : 2,
					"fontname" : "Helvetica Neue",
					"numoutlets" : 2,
					"patching_rect" : [ 306.0, 204.0, 58.0, 20.0 ],
					"id" : "obj-11",
					"outlettype" : [ "", "" ],
					"fontsize" : 11.0
				}

			}
, 			{
				"box" : 				{
					"maxclass" : "newobj",
					"text" : "zl change",
					"numinlets" : 2,
					"fontname" : "Helvetica Neue",
					"numoutlets" : 2,
					"patching_rect" : [ 162.0, 204.0, 58.0, 20.0 ],
					"id" : "obj-10",
					"outlettype" : [ "", "" ],
					"fontsize" : 11.0
				}

			}
, 			{
				"box" : 				{
					"maxclass" : "newobj",
					"text" : "sel 1",
					"numinlets" : 2,
					"fontname" : "Helvetica Neue",
					"numoutlets" : 2,
					"patching_rect" : [ 90.0, 54.0, 37.0, 20.0 ],
					"id" : "obj-8",
					"outlettype" : [ "bang", "" ],
					"fontsize" : 11.0
				}

			}
, 			{
				"box" : 				{
					"maxclass" : "newobj",
					"text" : "sel 0",
					"numinlets" : 2,
					"fontname" : "Helvetica Neue",
					"numoutlets" : 2,
					"patching_rect" : [ 468.0, 144.0, 37.0, 20.0 ],
					"id" : "obj-32",
					"outlettype" : [ "bang", "" ],
					"fontsize" : 11.0
				}

			}
, 			{
				"box" : 				{
					"maxclass" : "newobj",
					"text" : "sel 0",
					"numinlets" : 2,
					"fontname" : "Helvetica Neue",
					"numoutlets" : 2,
					"patching_rect" : [ 288.0, 144.0, 37.0, 20.0 ],
					"id" : "obj-29",
					"outlettype" : [ "bang", "" ],
					"fontsize" : 11.0
				}

			}
, 			{
				"box" : 				{
					"maxclass" : "newobj",
					"text" : "sel 0",
					"numinlets" : 2,
					"fontname" : "Helvetica Neue",
					"numoutlets" : 2,
					"patching_rect" : [ 108.0, 144.0, 34.0, 20.0 ],
					"id" : "obj-28",
					"outlettype" : [ "bang", "" ],
					"fontsize" : 11.0
				}

			}
, 			{
				"box" : 				{
					"maxclass" : "newobj",
					"text" : "p auto-MAPPINGs",
					"color" : [ 0.964706, 0.85098, 0.478431, 1.0 ],
					"numinlets" : 1,
					"fontname" : "Helvetica Neue",
					"numoutlets" : 1,
					"patching_rect" : [ 162.0, 174.0, 102.0, 20.0 ],
					"id" : "obj-26",
					"outlettype" : [ "" ],
					"fontsize" : 11.0,
					"patcher" : 					{
						"fileversion" : 1,
						"rect" : [ 25.0, 69.0, 640.0, 480.0 ],
						"bglocked" : 0,
						"defrect" : [ 25.0, 69.0, 640.0, 480.0 ],
						"openrect" : [ 0.0, 0.0, 0.0, 0.0 ],
						"openinpresentation" : 0,
						"default_fontsize" : 11.0,
						"default_fontface" : 0,
						"default_fontname" : "Helvetica Neue",
						"gridonopen" : 0,
						"gridsize" : [ 18.0, 6.0 ],
						"gridsnaponopen" : 0,
						"toolbarvisible" : 1,
						"boxanimatetime" : 200,
						"imprint" : 0,
						"enablehscroll" : 1,
						"enablevscroll" : 1,
						"devicewidth" : 0.0,
						"boxes" : [ 							{
								"box" : 								{
									"maxclass" : "newobj",
									"text" : "gate 2",
									"numinlets" : 2,
									"fontname" : "Helvetica Neue",
									"numoutlets" : 2,
									"patching_rect" : [ 50.0, 130.0, 41.0, 20.0 ],
									"id" : "obj-23",
									"outlettype" : [ "", "" ],
									"fontsize" : 11.0
								}

							}
, 							{
								"box" : 								{
									"maxclass" : "newobj",
									"text" : "r pathrefresh",
									"color" : [ 0.654902, 0.411765, 0.929412, 1.0 ],
									"numinlets" : 0,
									"fontname" : "Helvetica Neue",
									"numoutlets" : 1,
									"patching_rect" : [ 104.0, 178.0, 73.0, 20.0 ],
									"id" : "obj-39",
									"outlettype" : [ "" ],
									"fontsize" : 11.0
								}

							}
, 							{
								"box" : 								{
									"maxclass" : "newobj",
									"text" : "onebang",
									"numinlets" : 2,
									"fontname" : "Helvetica Neue",
									"numoutlets" : 2,
									"patching_rect" : [ 86.0, 220.0, 54.0, 20.0 ],
									"id" : "obj-33",
									"outlettype" : [ "bang", "bang" ],
									"fontsize" : 11.0
								}

							}
, 							{
								"box" : 								{
									"maxclass" : "message",
									"text" : "+MAPPING.maxpat",
									"numinlets" : 2,
									"fontname" : "Helvetica Neue",
									"numoutlets" : 1,
									"patching_rect" : [ 86.0, 250.0, 107.0, 18.0 ],
									"id" : "obj-32",
									"outlettype" : [ "" ],
									"fontsize" : 11.0
								}

							}
, 							{
								"box" : 								{
									"maxclass" : "newobj",
									"text" : "sel 1 2",
									"numinlets" : 1,
									"fontname" : "Helvetica Neue",
									"numoutlets" : 3,
									"patching_rect" : [ 140.0, 124.0, 46.0, 20.0 ],
									"id" : "obj-29",
									"outlettype" : [ "bang", "bang", "" ],
									"fontsize" : 11.0
								}

							}
, 							{
								"box" : 								{
									"maxclass" : "newobj",
									"text" : "loadmess #1",
									"numinlets" : 1,
									"fontname" : "Helvetica Neue",
									"numoutlets" : 1,
									"patching_rect" : [ 140.0, 100.0, 73.0, 20.0 ],
									"id" : "obj-28",
									"outlettype" : [ "" ],
									"fontsize" : 11.0
								}

							}
, 							{
								"box" : 								{
									"maxclass" : "inlet",
									"numinlets" : 0,
									"numoutlets" : 1,
									"patching_rect" : [ 72.0, 40.0, 25.0, 25.0 ],
									"id" : "obj-24",
									"outlettype" : [ "" ],
									"comment" : ""
								}

							}
, 							{
								"box" : 								{
									"maxclass" : "outlet",
									"numinlets" : 1,
									"numoutlets" : 0,
									"patching_rect" : [ 63.0, 328.0, 25.0, 25.0 ],
									"id" : "obj-25",
									"comment" : ""
								}

							}
 ],
						"lines" : [ 							{
								"patchline" : 								{
									"source" : [ "obj-32", 0 ],
									"destination" : [ "obj-25", 0 ],
									"hidden" : 0,
									"midpoints" : [  ]
								}

							}
, 							{
								"patchline" : 								{
									"source" : [ "obj-23", 1 ],
									"destination" : [ "obj-25", 0 ],
									"hidden" : 0,
									"midpoints" : [  ]
								}

							}
, 							{
								"patchline" : 								{
									"source" : [ "obj-24", 0 ],
									"destination" : [ "obj-23", 1 ],
									"hidden" : 0,
									"midpoints" : [  ]
								}

							}
, 							{
								"patchline" : 								{
									"source" : [ "obj-28", 0 ],
									"destination" : [ "obj-23", 0 ],
									"hidden" : 0,
									"midpoints" : [  ]
								}

							}
, 							{
								"patchline" : 								{
									"source" : [ "obj-33", 0 ],
									"destination" : [ "obj-32", 0 ],
									"hidden" : 0,
									"midpoints" : [  ]
								}

							}
, 							{
								"patchline" : 								{
									"source" : [ "obj-29", 0 ],
									"destination" : [ "obj-33", 1 ],
									"hidden" : 0,
									"midpoints" : [  ]
								}

							}
, 							{
								"patchline" : 								{
									"source" : [ "obj-28", 0 ],
									"destination" : [ "obj-29", 0 ],
									"hidden" : 0,
									"midpoints" : [  ]
								}

							}
, 							{
								"patchline" : 								{
									"source" : [ "obj-39", 0 ],
									"destination" : [ "obj-33", 0 ],
									"hidden" : 0,
									"midpoints" : [  ]
								}

							}
 ]
					}
,
					"saved_object_attributes" : 					{
						"fontname" : "Helvetica Neue",
						"default_fontface" : 0,
						"fontface" : 0,
						"fontsize" : 11.0,
						"globalpatchername" : "",
						"default_fontname" : "Helvetica Neue",
						"default_fontsize" : 11.0
					}

				}

			}
, 			{
				"box" : 				{
					"maxclass" : "newobj",
					"text" : "sprintf bindto parent::[tab%i]c-file",
					"numinlets" : 1,
					"fontname" : "Helvetica Neue",
					"numoutlets" : 1,
					"patching_rect" : [ 468.0, 84.0, 176.0, 20.0 ],
					"id" : "obj-40",
					"outlettype" : [ "" ],
					"fontsize" : 11.0
				}

			}
, 			{
				"box" : 				{
					"maxclass" : "newobj",
					"text" : "sprintf bindto parent::[tab%i]b-file",
					"numinlets" : 1,
					"fontname" : "Helvetica Neue",
					"numoutlets" : 1,
					"patching_rect" : [ 288.0, 84.0, 176.0, 20.0 ],
					"id" : "obj-31",
					"outlettype" : [ "" ],
					"fontsize" : 11.0
				}

			}
, 			{
				"box" : 				{
					"maxclass" : "newobj",
					"text" : "sprintf bindto parent::[tab%i]a-file",
					"numinlets" : 1,
					"fontname" : "Helvetica Neue",
					"numoutlets" : 1,
					"patching_rect" : [ 108.0, 84.0, 176.0, 20.0 ],
					"id" : "obj-27",
					"outlettype" : [ "" ],
					"fontsize" : 11.0
				}

			}
, 			{
				"box" : 				{
					"maxclass" : "newobj",
					"text" : "loadmess #1",
					"numinlets" : 1,
					"fontname" : "Helvetica Neue",
					"numoutlets" : 1,
					"patching_rect" : [ 90.0, 18.0, 73.0, 20.0 ],
					"id" : "obj-17",
					"outlettype" : [ "" ],
					"fontsize" : 11.0
				}

			}
, 			{
				"box" : 				{
					"maxclass" : "newobj",
					"text" : "prepend c",
					"numinlets" : 1,
					"fontname" : "Helvetica Neue",
					"numoutlets" : 1,
					"patching_rect" : [ 486.0, 234.0, 60.0, 20.0 ],
					"id" : "obj-145",
					"outlettype" : [ "" ],
					"fontsize" : 11.0
				}

			}
, 			{
				"box" : 				{
					"maxclass" : "newobj",
					"text" : "prepend b",
					"numinlets" : 1,
					"fontname" : "Helvetica Neue",
					"numoutlets" : 1,
					"patching_rect" : [ 306.0, 234.0, 61.0, 20.0 ],
					"id" : "obj-144",
					"outlettype" : [ "" ],
					"fontsize" : 11.0
				}

			}
, 			{
				"box" : 				{
					"maxclass" : "newobj",
					"varname" : "u595037633",
					"text" : "pattr",
					"numinlets" : 1,
					"fontname" : "Helvetica Neue",
					"numoutlets" : 3,
					"patching_rect" : [ 468.0, 114.0, 46.0, 20.0 ],
					"id" : "obj-143",
					"outlettype" : [ "", "", "" ],
					"fontsize" : 11.0,
					"restore" : [ 0 ],
					"saved_object_attributes" : 					{
						"parameter_enable" : 0
					}

				}

			}
, 			{
				"box" : 				{
					"maxclass" : "newobj",
					"varname" : "u987014719",
					"text" : "pattr",
					"numinlets" : 1,
					"fontname" : "Helvetica Neue",
					"numoutlets" : 3,
					"patching_rect" : [ 288.0, 114.0, 46.0, 20.0 ],
					"id" : "obj-142",
					"outlettype" : [ "", "", "" ],
					"fontsize" : 11.0,
					"restore" : [ 0 ],
					"saved_object_attributes" : 					{
						"parameter_enable" : 0
					}

				}

			}
, 			{
				"box" : 				{
					"maxclass" : "newobj",
					"varname" : "u942014715",
					"text" : "pattr",
					"numinlets" : 1,
					"fontname" : "Helvetica Neue",
					"numoutlets" : 3,
					"patching_rect" : [ 108.0, 114.0, 46.0, 20.0 ],
					"id" : "obj-141",
					"outlettype" : [ "", "", "" ],
					"fontsize" : 11.0,
					"restore" : [ 0 ],
					"saved_object_attributes" : 					{
						"parameter_enable" : 0
					}

				}

			}
, 			{
				"box" : 				{
					"maxclass" : "newobj",
					"text" : "prepend a",
					"numinlets" : 1,
					"fontname" : "Helvetica Neue",
					"numoutlets" : 1,
					"patching_rect" : [ 162.0, 234.0, 60.0, 20.0 ],
					"id" : "obj-74",
					"outlettype" : [ "" ],
					"fontsize" : 11.0
				}

			}
, 			{
				"box" : 				{
					"maxclass" : "newobj",
					"text" : "sprintf script sendbox [%s]insert replace %s",
					"numinlets" : 2,
					"fontname" : "Helvetica Neue",
					"numoutlets" : 1,
					"patching_rect" : [ 162.0, 276.0, 229.0, 20.0 ],
					"id" : "obj-70",
					"outlettype" : [ "" ],
					"fontsize" : 11.0
				}

			}
, 			{
				"box" : 				{
					"maxclass" : "newobj",
					"varname" : "u881042559",
					"text" : "autopattr",
					"numinlets" : 1,
					"fontname" : "Helvetica Neue",
					"numoutlets" : 4,
					"patching_rect" : [ 828.0, 318.0, 59.5, 20.0 ],
					"id" : "obj-18",
					"outlettype" : [ "", "", "", "" ],
					"fontsize" : 11.0
				}

			}
, 			{
				"box" : 				{
					"maxclass" : "inlet",
					"numinlets" : 0,
					"numoutlets" : 1,
					"patching_rect" : [ 90.0, 270.0, 25.0, 25.0 ],
					"id" : "obj-1",
					"outlettype" : [ "" ],
					"comment" : ""
				}

			}
, 			{
				"box" : 				{
					"maxclass" : "bpatcher",
					"varname" : "[c]insert",
					"presentation_rect" : [ 650.0, 58.0, 299.0, 178.0 ],
					"numinlets" : 0,
					"offset" : [ -109.0, -103.0 ],
					"numoutlets" : 0,
					"args" : [  ],
					"patching_rect" : [ 522.0, 342.0, 230.0, 141.0 ],
					"id" : "obj-15",
					"presentation" : 1
				}

			}
, 			{
				"box" : 				{
					"maxclass" : "bpatcher",
					"varname" : "[b]insert",
					"presentation_rect" : [ 343.0, 58.0, 299.0, 178.0 ],
					"numinlets" : 0,
					"offset" : [ -109.0, -103.0 ],
					"numoutlets" : 0,
					"args" : [  ],
					"patching_rect" : [ 288.0, 342.0, 230.0, 141.0 ],
					"id" : "obj-14",
					"presentation" : 1
				}

			}
, 			{
				"box" : 				{
					"maxclass" : "bpatcher",
					"varname" : "[a]insert",
					"presentation_rect" : [ 36.0, 58.0, 299.0, 178.0 ],
					"numinlets" : 0,
					"offset" : [ -109.0, -103.0 ],
					"numoutlets" : 0,
					"args" : [  ],
					"patching_rect" : [ 54.0, 342.0, 230.0, 141.0 ],
					"id" : "obj-38",
					"presentation" : 1
				}

			}
, 			{
				"box" : 				{
					"maxclass" : "panel",
					"presentation_rect" : [ 650.0, 39.0, 299.0, 19.0 ],
					"numinlets" : 1,
					"numoutlets" : 0,
					"patching_rect" : [ 846.0, 180.0, 18.0, 24.0 ],
					"id" : "obj-5",
					"presentation" : 1,
					"rounded" : 0,
					"bordercolor" : [ 0.160784, 0.160784, 0.160784, 1.0 ],
					"bgcolor" : [ 0.239216, 0.239216, 0.239216, 1.0 ]
				}

			}
, 			{
				"box" : 				{
					"maxclass" : "panel",
					"presentation_rect" : [ 650.0, 39.0, 299.0, 197.0 ],
					"numinlets" : 1,
					"numoutlets" : 0,
					"patching_rect" : [ 864.0, 180.0, 18.0, 24.0 ],
					"id" : "obj-6",
					"presentation" : 1,
					"rounded" : 0,
					"bordercolor" : [ 0.101961, 0.101961, 0.101961, 1.0 ],
					"bgcolor" : [ 0.101961, 0.101961, 0.101961, 1.0 ]
				}

			}
, 			{
				"box" : 				{
					"maxclass" : "panel",
					"presentation_rect" : [ 650.0, 36.0, 299.0, 4.0 ],
					"numinlets" : 1,
					"numoutlets" : 0,
					"patching_rect" : [ 828.0, 180.0, 18.0, 24.0 ],
					"id" : "obj-7",
					"presentation" : 1,
					"rounded" : 0,
					"bordercolor" : [ 0.34902, 0.34902, 0.34902, 1.0 ],
					"bgcolor" : [ 0.34902, 0.34902, 0.34902, 1.0 ]
				}

			}
, 			{
				"box" : 				{
					"maxclass" : "panel",
					"presentation_rect" : [ 343.0, 39.0, 299.0, 19.0 ],
					"numinlets" : 1,
					"numoutlets" : 0,
					"patching_rect" : [ 846.0, 156.0, 18.0, 24.0 ],
					"id" : "obj-2",
					"presentation" : 1,
					"rounded" : 0,
					"bordercolor" : [ 0.160784, 0.160784, 0.160784, 1.0 ],
					"bgcolor" : [ 0.239216, 0.239216, 0.239216, 1.0 ]
				}

			}
, 			{
				"box" : 				{
					"maxclass" : "panel",
					"presentation_rect" : [ 343.0, 39.0, 299.0, 197.0 ],
					"numinlets" : 1,
					"numoutlets" : 0,
					"patching_rect" : [ 864.0, 156.0, 18.0, 24.0 ],
					"id" : "obj-3",
					"presentation" : 1,
					"rounded" : 0,
					"bordercolor" : [ 0.101961, 0.101961, 0.101961, 1.0 ],
					"bgcolor" : [ 0.101961, 0.101961, 0.101961, 1.0 ]
				}

			}
, 			{
				"box" : 				{
					"maxclass" : "panel",
					"presentation_rect" : [ 343.0, 36.0, 299.0, 4.0 ],
					"numinlets" : 1,
					"numoutlets" : 0,
					"patching_rect" : [ 828.0, 156.0, 18.0, 24.0 ],
					"id" : "obj-4",
					"presentation" : 1,
					"rounded" : 0,
					"bordercolor" : [ 0.34902, 0.34902, 0.34902, 1.0 ],
					"bgcolor" : [ 0.34902, 0.34902, 0.34902, 1.0 ]
				}

			}
, 			{
				"box" : 				{
					"maxclass" : "panel",
					"presentation_rect" : [ 36.0, 39.0, 299.0, 19.0 ],
					"numinlets" : 1,
					"numoutlets" : 0,
					"patching_rect" : [ 846.0, 132.0, 18.0, 24.0 ],
					"id" : "obj-110",
					"presentation" : 1,
					"rounded" : 0,
					"bordercolor" : [ 0.160784, 0.160784, 0.160784, 1.0 ],
					"bgcolor" : [ 0.239216, 0.239216, 0.239216, 1.0 ]
				}

			}
, 			{
				"box" : 				{
					"maxclass" : "panel",
					"presentation_rect" : [ 36.0, 39.0, 299.0, 197.0 ],
					"numinlets" : 1,
					"numoutlets" : 0,
					"patching_rect" : [ 864.0, 132.0, 18.0, 24.0 ],
					"id" : "obj-107",
					"presentation" : 1,
					"rounded" : 0,
					"bordercolor" : [ 0.101961, 0.101961, 0.101961, 1.0 ],
					"bgcolor" : [ 0.101961, 0.101961, 0.101961, 1.0 ]
				}

			}
, 			{
				"box" : 				{
					"maxclass" : "panel",
					"presentation_rect" : [ 36.0, 36.0, 299.0, 4.0 ],
					"numinlets" : 1,
					"numoutlets" : 0,
					"patching_rect" : [ 828.0, 132.0, 18.0, 24.0 ],
					"id" : "obj-105",
					"presentation" : 1,
					"rounded" : 0,
					"bordercolor" : [ 0.34902, 0.34902, 0.34902, 1.0 ],
					"bgcolor" : [ 0.34902, 0.34902, 0.34902, 1.0 ]
				}

			}
, 			{
				"box" : 				{
					"maxclass" : "newobj",
					"text" : "thispatcher",
					"numinlets" : 1,
					"fontname" : "Helvetica Neue",
					"numoutlets" : 2,
					"patching_rect" : [ 162.0, 318.0, 70.0, 20.0 ],
					"id" : "obj-30",
					"outlettype" : [ "", "" ],
					"fontsize" : 11.0,
					"save" : [ "#N", "thispatcher", ";", "#Q", "end", ";" ]
				}

			}
 ],
		"lines" : [ 			{
				"patchline" : 				{
					"source" : [ "obj-11", 0 ],
					"destination" : [ "obj-144", 0 ],
					"hidden" : 0,
					"midpoints" : [  ]
				}

			}
, 			{
				"patchline" : 				{
					"source" : [ "obj-29", 1 ],
					"destination" : [ "obj-11", 0 ],
					"hidden" : 0,
					"midpoints" : [  ]
				}

			}
, 			{
				"patchline" : 				{
					"source" : [ "obj-12", 0 ],
					"destination" : [ "obj-145", 0 ],
					"hidden" : 0,
					"midpoints" : [  ]
				}

			}
, 			{
				"patchline" : 				{
					"source" : [ "obj-32", 1 ],
					"destination" : [ "obj-12", 0 ],
					"hidden" : 0,
					"midpoints" : [  ]
				}

			}
, 			{
				"patchline" : 				{
					"source" : [ "obj-10", 0 ],
					"destination" : [ "obj-74", 0 ],
					"hidden" : 0,
					"midpoints" : [  ]
				}

			}
, 			{
				"patchline" : 				{
					"source" : [ "obj-26", 0 ],
					"destination" : [ "obj-10", 0 ],
					"hidden" : 0,
					"midpoints" : [  ]
				}

			}
, 			{
				"patchline" : 				{
					"source" : [ "obj-31", 0 ],
					"destination" : [ "obj-142", 0 ],
					"hidden" : 0,
					"midpoints" : [  ]
				}

			}
, 			{
				"patchline" : 				{
					"source" : [ "obj-40", 0 ],
					"destination" : [ "obj-143", 0 ],
					"hidden" : 0,
					"midpoints" : [  ]
				}

			}
, 			{
				"patchline" : 				{
					"source" : [ "obj-1", 0 ],
					"destination" : [ "obj-30", 0 ],
					"hidden" : 0,
					"midpoints" : [ 99.5, 306.0, 171.5, 306.0 ]
				}

			}
, 			{
				"patchline" : 				{
					"source" : [ "obj-145", 0 ],
					"destination" : [ "obj-70", 0 ],
					"hidden" : 0,
					"midpoints" : [ 495.5, 264.5, 171.5, 264.5 ]
				}

			}
, 			{
				"patchline" : 				{
					"source" : [ "obj-144", 0 ],
					"destination" : [ "obj-70", 0 ],
					"hidden" : 0,
					"midpoints" : [ 315.5, 264.5, 171.5, 264.5 ]
				}

			}
, 			{
				"patchline" : 				{
					"source" : [ "obj-70", 0 ],
					"destination" : [ "obj-30", 0 ],
					"hidden" : 0,
					"midpoints" : [  ]
				}

			}
, 			{
				"patchline" : 				{
					"source" : [ "obj-74", 0 ],
					"destination" : [ "obj-70", 0 ],
					"hidden" : 0,
					"midpoints" : [  ]
				}

			}
, 			{
				"patchline" : 				{
					"source" : [ "obj-27", 0 ],
					"destination" : [ "obj-141", 0 ],
					"hidden" : 0,
					"midpoints" : [  ]
				}

			}
, 			{
				"patchline" : 				{
					"source" : [ "obj-17", 0 ],
					"destination" : [ "obj-31", 0 ],
					"hidden" : 0,
					"midpoints" : [ 99.5, 48.5, 297.5, 48.5 ]
				}

			}
, 			{
				"patchline" : 				{
					"source" : [ "obj-17", 0 ],
					"destination" : [ "obj-40", 0 ],
					"hidden" : 0,
					"midpoints" : [ 99.5, 48.5, 477.5, 48.5 ]
				}

			}
, 			{
				"patchline" : 				{
					"source" : [ "obj-17", 0 ],
					"destination" : [ "obj-8", 0 ],
					"hidden" : 0,
					"midpoints" : [  ]
				}

			}
, 			{
				"patchline" : 				{
					"source" : [ "obj-8", 1 ],
					"destination" : [ "obj-27", 0 ],
					"hidden" : 0,
					"midpoints" : [  ]
				}

			}
, 			{
				"patchline" : 				{
					"source" : [ "obj-141", 0 ],
					"destination" : [ "obj-28", 0 ],
					"hidden" : 0,
					"midpoints" : [  ]
				}

			}
, 			{
				"patchline" : 				{
					"source" : [ "obj-28", 1 ],
					"destination" : [ "obj-26", 0 ],
					"hidden" : 0,
					"midpoints" : [  ]
				}

			}
, 			{
				"patchline" : 				{
					"source" : [ "obj-142", 0 ],
					"destination" : [ "obj-29", 0 ],
					"hidden" : 0,
					"midpoints" : [  ]
				}

			}
, 			{
				"patchline" : 				{
					"source" : [ "obj-143", 0 ],
					"destination" : [ "obj-32", 0 ],
					"hidden" : 0,
					"midpoints" : [  ]
				}

			}
 ]
	}

}
